# Wavefront OBJ file automatically generated by Tiled2Unity

# Vertices (Count = 256)
v -0.32 -0.64 0
v -0.64 -0.64 0
v -0.64 -0.32 0
v -0.32 -0.32 0
v -0.96 -0.64 0
v -0.96 -0.32 0
v -1.28 -0.64 0
v -1.28 -0.32 0
v -1.6 -0.64 0
v -1.6 -0.32 0
v -1.92 -0.64 0
v -1.92 -0.32 0
v -2.24 -0.64 0
v -2.24 -0.32 0
v -2.56 -0.64 0
v -2.56 -0.32 0
v -2.88 -0.64 0
v -2.88 -0.32 0
v -3.2 -0.64 0
v -3.2 -0.32 0
v -3.52 -0.64 0
v -3.52 -0.32 0
v -3.84 -0.64 0
v -3.84 -0.32 0
v -4.16 -0.64 0
v -4.16 -0.32 0
v -4.48 -0.64 0
v -4.48 -0.32 0
v -4.8 -0.64 0
v -4.8 -0.32 0
v -5.12 -0.64 0
v -5.12 -0.32 0
v -0.32 -0.96 0
v -0.64 -0.96 0
v -0.96 -0.96 0
v -1.28 -0.96 0
v -1.6 -0.96 0
v -1.92 -0.96 0
v -2.24 -0.96 0
v -2.56 -0.96 0
v -2.88 -0.96 0
v -3.2 -0.96 0
v -3.52 -0.96 0
v -3.84 -0.96 0
v -4.16 -0.96 0
v -4.48 -0.96 0
v -4.8 -0.96 0
v -5.12 -0.96 0
v -0.32 -1.28 0
v -0.64 -1.28 0
v -0.96 -1.28 0
v -1.28 -1.28 0
v -1.6 -1.28 0
v -1.92 -1.28 0
v -2.24 -1.28 0
v -2.56 -1.28 0
v -2.88 -1.28 0
v -3.2 -1.28 0
v -3.52 -1.28 0
v -3.84 -1.28 0
v -4.16 -1.28 0
v -4.48 -1.28 0
v -4.8 -1.28 0
v -5.12 -1.28 0
v -0.32 -1.6 0
v -0.64 -1.6 0
v -0.96 -1.6 0
v -1.28 -1.6 0
v -1.6 -1.6 0
v -1.92 -1.6 0
v -2.24 -1.6 0
v -2.56 -1.6 0
v -2.88 -1.6 0
v -3.2 -1.6 0
v -3.52 -1.6 0
v -3.84 -1.6 0
v -4.16 -1.6 0
v -4.48 -1.6 0
v -4.8 -1.6 0
v -5.12 -1.6 0
v -0.32 -1.92 0
v -0.64 -1.92 0
v -0.96 -1.92 0
v -1.28 -1.92 0
v -1.6 -1.92 0
v -1.92 -1.92 0
v -2.24 -1.92 0
v -2.56 -1.92 0
v -2.88 -1.92 0
v -3.2 -1.92 0
v -3.52 -1.92 0
v -3.84 -1.92 0
v -4.16 -1.92 0
v -4.48 -1.92 0
v -4.8 -1.92 0
v -5.12 -1.92 0
v -0.32 -2.24 0
v -0.64 -2.24 0
v -0.96 -2.24 0
v -1.28 -2.24 0
v -1.6 -2.24 0
v -1.92 -2.24 0
v -2.24 -2.24 0
v -2.56 -2.24 0
v -2.88 -2.24 0
v -3.2 -2.24 0
v -3.52 -2.24 0
v -3.84 -2.24 0
v -4.16 -2.24 0
v -4.48 -2.24 0
v -4.8 -2.24 0
v -5.12 -2.24 0
v -0.32 -2.56 0
v -0.64 -2.56 0
v -0.96 -2.56 0
v -1.28 -2.56 0
v -1.6 -2.56 0
v -1.92 -2.56 0
v -2.24 -2.56 0
v -2.56 -2.56 0
v -2.88 -2.56 0
v -3.2 -2.56 0
v -3.52 -2.56 0
v -3.84 -2.56 0
v -4.16 -2.56 0
v -4.48 -2.56 0
v -4.8 -2.56 0
v -5.12 -2.56 0
v -0.32 -2.88 0
v -0.64 -2.88 0
v -0.96 -2.88 0
v -1.28 -2.88 0
v -1.6 -2.88 0
v -1.92 -2.88 0
v -2.24 -2.88 0
v -2.56 -2.88 0
v -2.88 -2.88 0
v -3.2 -2.88 0
v -3.52 -2.88 0
v -3.84 -2.88 0
v -4.16 -2.88 0
v -4.48 -2.88 0
v -4.8 -2.88 0
v -5.12 -2.88 0
v -0.32 -3.2 0
v -0.64 -3.2 0
v -0.96 -3.2 0
v -1.28 -3.2 0
v -1.6 -3.2 0
v -1.92 -3.2 0
v -2.24 -3.2 0
v -2.56 -3.2 0
v -2.88 -3.2 0
v -3.2 -3.2 0
v -3.52 -3.2 0
v -3.84 -3.2 0
v -4.16 -3.2 0
v -4.48 -3.2 0
v -4.8 -3.2 0
v -5.12 -3.2 0
v -0.32 -3.52 0
v -0.64 -3.52 0
v -0.96 -3.52 0
v -1.28 -3.52 0
v -1.6 -3.52 0
v -1.92 -3.52 0
v -2.24 -3.52 0
v -2.56 -3.52 0
v -2.88 -3.52 0
v -3.2 -3.52 0
v -3.52 -3.52 0
v -3.84 -3.52 0
v -4.16 -3.52 0
v -4.48 -3.52 0
v -4.8 -3.52 0
v -5.12 -3.52 0
v -0.32 -3.84 0
v -0.64 -3.84 0
v -0.96 -3.84 0
v -1.28 -3.84 0
v -1.6 -3.84 0
v -1.92 -3.84 0
v -2.24 -3.84 0
v -2.56 -3.84 0
v -2.88 -3.84 0
v -3.2 -3.84 0
v -3.52 -3.84 0
v -3.84 -3.84 0
v -4.16 -3.84 0
v -4.48 -3.84 0
v -4.8 -3.84 0
v -5.12 -3.84 0
v -0.32 -4.16 0
v -0.64 -4.16 0
v -0.96 -4.16 0
v -1.28 -4.16 0
v -1.6 -4.16 0
v -1.92 -4.16 0
v -2.24 -4.16 0
v -2.56 -4.16 0
v -2.88 -4.16 0
v -3.2 -4.16 0
v -3.52 -4.16 0
v -3.84 -4.16 0
v -4.16 -4.16 0
v -4.48 -4.16 0
v -4.8 -4.16 0
v -5.12 -4.16 0
v -0.32 -4.48 0
v -0.64 -4.48 0
v -0.96 -4.48 0
v -1.28 -4.48 0
v -1.6 -4.48 0
v -1.92 -4.48 0
v -2.24 -4.48 0
v -2.56 -4.48 0
v -2.88 -4.48 0
v -3.2 -4.48 0
v -3.52 -4.48 0
v -3.84 -4.48 0
v -4.16 -4.48 0
v -4.48 -4.48 0
v -4.8 -4.48 0
v -5.12 -4.48 0
v -0.32 -4.8 0
v -0.64 -4.8 0
v -0.96 -4.8 0
v -1.28 -4.8 0
v -1.6 -4.8 0
v -1.92 -4.8 0
v -2.24 -4.8 0
v -2.56 -4.8 0
v -2.88 -4.8 0
v -3.2 -4.8 0
v -3.52 -4.8 0
v -3.84 -4.8 0
v -4.16 -4.8 0
v -4.48 -4.8 0
v -4.8 -4.8 0
v -5.12 -4.8 0
v -0.32 -5.12 0
v -0.64 -5.12 0
v -0.96 -5.12 0
v -1.28 -5.12 0
v -1.6 -5.12 0
v -1.92 -5.12 0
v -2.24 -5.12 0
v -2.56 -5.12 0
v -2.88 -5.12 0
v -3.2 -5.12 0
v -3.52 -5.12 0
v -3.84 -5.12 0
v -4.16 -5.12 0
v -4.48 -5.12 0
v -4.8 -5.12 0
v -5.12 -5.12 0

# Texture cooridinates (Count = 125)
vt 0.3334554 0.3334554
vt 0.6665446 0.3334554
vt 0.6665446 0.4998779
vt 0.3334554 0.4998779
vt 0.3334554 0.6667887
vt 0.6665446 0.6667887
vt 0.6665446 0.8332112
vt 0.3334554 0.8332112
vt 0.6667888 0.5001221
vt 0.9998779 0.5001221
vt 0.9998779 0.6665446
vt 0.6667888 0.6665446
vt 0.6667888 0.8334554
vt 0.9998779 0.8334554
vt 0.9998779 0.9998779
vt 0.6667888 0.9998779
vt 0.3334554 0.5001221
vt 0.6665446 0.5001221
vt 0.6665446 0.6665446
vt 0.3334554 0.6665446
vt 0.0001220703 0.1667888
vt 0.3332113 0.1667888
vt 0.3332113 0.3332112
vt 0.0001220703 0.3332112
vt 0.3334554 0.1667888
vt 0.6665446 0.1667888
vt 0.6665446 0.3332112
vt 0.3334554 0.3332112
vt 0.0001220703 0.3334554
vt 0.3332113 0.3334554
vt 0.3332113 0.4998779
vt 0.0001220703 0.4998779
vt 0.3334554 0.0001220703
vt 0.6665446 0.0001220703
vt 0.6665446 0.1665446
vt 0.3334554 0.1665446
vt 0.0001220703 0.0001220703
vt 0.3332113 0.0001220703
vt 0.3332113 0.1665446
vt 0.0001220703 0.1665446
vt 0.6667888 0.0001220703
vt 0.9998779 0.0001220703
vt 0.9998779 0.1665446
vt 0.6667888 0.1665446
vt 0.5001221 0.7144078
vt 0.6665446 0.7144078
vt 0.6665446 0.8570208
vt 0.5001221 0.8570208
vt 0.6667888 0.7144078
vt 0.8332112 0.7144078
vt 0.8332112 0.8570208
vt 0.6667888 0.8570208
vt 0.8334554 0.7144078
vt 0.9998779 0.7144078
vt 0.9998779 0.8570208
vt 0.8334554 0.8570208
vt 0.5001221 0.5715506
vt 0.6665446 0.5715506
vt 0.6665446 0.7141637
vt 0.5001221 0.7141637
vt 0.6667888 0.5715506
vt 0.8332112 0.5715506
vt 0.8332112 0.7141637
vt 0.6667888 0.7141637
vt 0.8334554 0.5715506
vt 0.9998779 0.5715506
vt 0.9998779 0.7141637
vt 0.8334554 0.7141637
vt 0.0001220703 0.8572649
vt 0.1665446 0.8572649
vt 0.1665446 0.9998779
vt 0.0001220703 0.9998779
vt 0.1667887 0.8572649
vt 0.3332113 0.8572649
vt 0.3332113 0.9998779
vt 0.1667887 0.9998779
vt 0.3334554 0.8572649
vt 0.4998779 0.8572649
vt 0.4998779 0.9998779
vt 0.3334554 0.9998779
vt 0.0001220703 0.7144078
vt 0.1665446 0.7144078
vt 0.1665446 0.8570208
vt 0.0001220703 0.8570208
vt 0.1667887 0.7144078
vt 0.3332113 0.7144078
vt 0.3332113 0.8570208
vt 0.1667887 0.8570208
vt 0.3334554 0.7144078
vt 0.4998779 0.7144078
vt 0.4998779 0.8570208
vt 0.3334554 0.8570208
vt 0.0001220703 0.5715506
vt 0.1665446 0.5715506
vt 0.1665446 0.7141637
vt 0.0001220703 0.7141637
vt 0.1667887 0.5715506
vt 0.3332113 0.5715506
vt 0.3332113 0.7141637
vt 0.1667887 0.7141637
vt 0.3334554 0.5715506
vt 0.4998779 0.5715506
vt 0.4998779 0.7141637
vt 0.3334554 0.7141637
vt 0.5001221 0.0001220703
vt 0.5001221 0.9998779
vt 0.4998779 0.0001220703
vt 0.1665446 0.3334554
vt 0.1665446 0.6665446
vt 0.0001220703 0.6665446
vt 0.1667887 0.3334554
vt 0.3332113 0.6665446
vt 0.1667887 0.6665446
vt 0.4998779 0.3334554
vt 0.4998779 0.6665446
vt 0.1665446 0.0001220703
vt 0.1665446 0.3332112
vt 0.1667887 0.0001220703
vt 0.1667887 0.3332112
vt 0.4998779 0.3332112
vt 0.0001220703 0.6667887
vt 0.1665446 0.6667887
vt 0.1667887 0.6667887
vt 0.3332113 0.6667887
vt 0.4998779 0.6667887

# Normal
vn 0 0 -1

# Groups (Count = 6)

g mesh_0001
f 1/1/1 2/2/1 3/3/1 4/4/1
f 2/1/1 5/2/1 6/3/1 3/4/1
f 5/1/1 7/2/1 8/3/1 6/4/1
f 7/1/1 9/2/1 10/3/1 8/4/1
f 9/1/1 11/2/1 12/3/1 10/4/1
f 11/1/1 13/2/1 14/3/1 12/4/1
f 13/1/1 15/2/1 16/3/1 14/4/1
f 15/1/1 17/2/1 18/3/1 16/4/1
f 17/1/1 19/2/1 20/3/1 18/4/1
f 19/1/1 21/2/1 22/3/1 20/4/1
f 21/1/1 23/2/1 24/3/1 22/4/1
f 23/1/1 25/2/1 26/3/1 24/4/1
f 25/1/1 27/2/1 28/3/1 26/4/1
f 27/1/1 29/2/1 30/3/1 28/4/1
f 29/1/1 31/2/1 32/3/1 30/4/1
f 33/1/1 34/2/1 2/3/1 1/4/1
f 34/1/1 35/2/1 5/3/1 2/4/1
f 35/1/1 36/2/1 7/3/1 5/4/1
f 36/1/1 37/2/1 9/3/1 7/4/1
f 37/1/1 38/2/1 11/3/1 9/4/1
f 38/1/1 39/2/1 13/3/1 11/4/1
f 39/1/1 40/2/1 15/3/1 13/4/1
f 40/1/1 41/2/1 17/3/1 15/4/1
f 41/1/1 42/2/1 19/3/1 17/4/1
f 42/1/1 43/2/1 21/3/1 19/4/1
f 43/1/1 44/2/1 23/3/1 21/4/1
f 44/1/1 45/2/1 25/3/1 23/4/1
f 45/1/1 46/2/1 27/3/1 25/4/1
f 46/1/1 47/2/1 29/3/1 27/4/1
f 47/1/1 48/2/1 31/3/1 29/4/1
f 49/1/1 50/2/1 34/3/1 33/4/1
f 50/1/1 51/2/1 35/3/1 34/4/1
f 51/1/1 52/2/1 36/3/1 35/4/1
f 52/1/1 53/2/1 37/3/1 36/4/1
f 53/1/1 54/2/1 38/3/1 37/4/1
f 54/1/1 55/2/1 39/3/1 38/4/1
f 55/1/1 56/2/1 40/3/1 39/4/1
f 56/1/1 57/2/1 41/3/1 40/4/1
f 57/1/1 58/2/1 42/3/1 41/4/1
f 58/1/1 59/2/1 43/3/1 42/4/1
f 59/1/1 60/2/1 44/3/1 43/4/1
f 60/1/1 61/2/1 45/3/1 44/4/1
f 61/1/1 62/2/1 46/3/1 45/4/1
f 62/1/1 63/2/1 47/3/1 46/4/1
f 63/1/1 64/2/1 48/3/1 47/4/1
f 65/1/1 66/2/1 50/3/1 49/4/1
f 66/1/1 67/2/1 51/3/1 50/4/1
f 67/1/1 68/2/1 52/3/1 51/4/1
f 68/1/1 69/2/1 53/3/1 52/4/1
f 69/1/1 70/2/1 54/3/1 53/4/1
f 70/1/1 71/2/1 55/3/1 54/4/1
f 71/1/1 72/2/1 56/3/1 55/4/1
f 72/1/1 73/2/1 57/3/1 56/4/1
f 73/1/1 74/2/1 58/3/1 57/4/1
f 74/1/1 75/2/1 59/3/1 58/4/1
f 75/1/1 76/2/1 60/3/1 59/4/1
f 76/1/1 77/2/1 61/3/1 60/4/1
f 77/1/1 78/2/1 62/3/1 61/4/1
f 78/1/1 79/2/1 63/3/1 62/4/1
f 79/1/1 80/2/1 64/3/1 63/4/1
f 81/1/1 82/2/1 66/3/1 65/4/1
f 82/1/1 83/2/1 67/3/1 66/4/1
f 83/1/1 84/2/1 68/3/1 67/4/1
f 84/1/1 85/2/1 69/3/1 68/4/1
f 85/1/1 86/2/1 70/3/1 69/4/1
f 86/1/1 87/2/1 71/3/1 70/4/1
f 87/1/1 88/2/1 72/3/1 71/4/1
f 88/1/1 89/2/1 73/3/1 72/4/1
f 89/1/1 90/2/1 74/3/1 73/4/1
f 90/1/1 91/2/1 75/3/1 74/4/1
f 91/1/1 92/2/1 76/3/1 75/4/1
f 92/1/1 93/2/1 77/3/1 76/4/1
f 93/1/1 94/2/1 78/3/1 77/4/1
f 94/1/1 95/2/1 79/3/1 78/4/1
f 95/1/1 96/2/1 80/3/1 79/4/1
f 97/1/1 98/2/1 82/3/1 81/4/1
f 98/1/1 99/2/1 83/3/1 82/4/1
f 99/1/1 100/2/1 84/3/1 83/4/1
f 100/1/1 101/2/1 85/3/1 84/4/1
f 101/1/1 102/2/1 86/3/1 85/4/1
f 102/1/1 103/2/1 87/3/1 86/4/1
f 103/1/1 104/2/1 88/3/1 87/4/1
f 104/1/1 105/2/1 89/3/1 88/4/1
f 105/1/1 106/2/1 90/3/1 89/4/1
f 106/1/1 107/2/1 91/3/1 90/4/1
f 107/1/1 108/2/1 92/3/1 91/4/1
f 108/1/1 109/2/1 93/3/1 92/4/1
f 109/1/1 110/2/1 94/3/1 93/4/1
f 110/1/1 111/2/1 95/3/1 94/4/1
f 111/1/1 112/2/1 96/3/1 95/4/1
f 113/1/1 114/2/1 98/3/1 97/4/1
f 114/1/1 115/2/1 99/3/1 98/4/1
f 115/1/1 116/2/1 100/3/1 99/4/1
f 116/1/1 117/2/1 101/3/1 100/4/1
f 117/1/1 118/2/1 102/3/1 101/4/1
f 118/1/1 119/2/1 103/3/1 102/4/1
f 119/1/1 120/2/1 104/3/1 103/4/1
f 120/1/1 121/2/1 105/3/1 104/4/1
f 121/1/1 122/2/1 106/3/1 105/4/1
f 122/1/1 123/2/1 107/3/1 106/4/1
f 123/1/1 124/2/1 108/3/1 107/4/1
f 124/1/1 125/2/1 109/3/1 108/4/1
f 125/1/1 126/2/1 110/3/1 109/4/1
f 126/1/1 127/2/1 111/3/1 110/4/1
f 127/1/1 128/2/1 112/3/1 111/4/1
f 129/1/1 130/2/1 114/3/1 113/4/1
f 130/1/1 131/2/1 115/3/1 114/4/1
f 131/1/1 132/2/1 116/3/1 115/4/1
f 132/1/1 133/2/1 117/3/1 116/4/1
f 133/1/1 134/2/1 118/3/1 117/4/1
f 134/1/1 135/2/1 119/3/1 118/4/1
f 135/1/1 136/2/1 120/3/1 119/4/1
f 136/1/1 137/2/1 121/3/1 120/4/1
f 137/1/1 138/2/1 122/3/1 121/4/1
f 138/1/1 139/2/1 123/3/1 122/4/1
f 139/1/1 140/2/1 124/3/1 123/4/1
f 140/1/1 141/2/1 125/3/1 124/4/1
f 141/1/1 142/2/1 126/3/1 125/4/1
f 142/1/1 143/2/1 127/3/1 126/4/1
f 143/1/1 144/2/1 128/3/1 127/4/1
f 145/1/1 146/2/1 130/3/1 129/4/1
f 146/1/1 147/2/1 131/3/1 130/4/1
f 147/1/1 148/2/1 132/3/1 131/4/1
f 148/1/1 149/2/1 133/3/1 132/4/1
f 149/1/1 150/2/1 134/3/1 133/4/1
f 150/1/1 151/2/1 135/3/1 134/4/1
f 151/1/1 152/2/1 136/3/1 135/4/1
f 152/1/1 153/2/1 137/3/1 136/4/1
f 153/1/1 154/2/1 138/3/1 137/4/1
f 154/1/1 155/2/1 139/3/1 138/4/1
f 155/1/1 156/2/1 140/3/1 139/4/1
f 156/1/1 157/2/1 141/3/1 140/4/1
f 157/1/1 158/2/1 142/3/1 141/4/1
f 158/1/1 159/2/1 143/3/1 142/4/1
f 159/1/1 160/2/1 144/3/1 143/4/1
f 161/1/1 162/2/1 146/3/1 145/4/1
f 162/1/1 163/2/1 147/3/1 146/4/1
f 163/1/1 164/2/1 148/3/1 147/4/1
f 164/1/1 165/2/1 149/3/1 148/4/1
f 165/1/1 166/2/1 150/3/1 149/4/1
f 166/1/1 167/2/1 151/3/1 150/4/1
f 167/1/1 168/2/1 152/3/1 151/4/1
f 168/1/1 169/2/1 153/3/1 152/4/1
f 169/1/1 170/2/1 154/3/1 153/4/1
f 170/1/1 171/2/1 155/3/1 154/4/1
f 171/1/1 172/2/1 156/3/1 155/4/1
f 172/1/1 173/2/1 157/3/1 156/4/1
f 173/1/1 174/2/1 158/3/1 157/4/1
f 174/1/1 175/2/1 159/3/1 158/4/1
f 175/1/1 176/2/1 160/3/1 159/4/1
f 177/1/1 178/2/1 162/3/1 161/4/1
f 178/1/1 179/2/1 163/3/1 162/4/1
f 179/1/1 180/2/1 164/3/1 163/4/1
f 180/1/1 181/2/1 165/3/1 164/4/1
f 181/1/1 182/2/1 166/3/1 165/4/1
f 182/1/1 183/2/1 167/3/1 166/4/1
f 183/1/1 184/2/1 168/3/1 167/4/1
f 184/1/1 185/2/1 169/3/1 168/4/1
f 185/1/1 186/2/1 170/3/1 169/4/1
f 186/1/1 187/2/1 171/3/1 170/4/1
f 187/1/1 188/2/1 172/3/1 171/4/1
f 188/1/1 189/2/1 173/3/1 172/4/1
f 189/1/1 190/2/1 174/3/1 173/4/1
f 190/1/1 191/2/1 175/3/1 174/4/1
f 191/1/1 192/2/1 176/3/1 175/4/1
f 193/1/1 194/2/1 178/3/1 177/4/1
f 194/1/1 195/2/1 179/3/1 178/4/1
f 195/1/1 196/2/1 180/3/1 179/4/1
f 196/1/1 197/2/1 181/3/1 180/4/1
f 197/1/1 198/2/1 182/3/1 181/4/1
f 198/1/1 199/2/1 183/3/1 182/4/1
f 199/1/1 200/2/1 184/3/1 183/4/1
f 200/1/1 201/2/1 185/3/1 184/4/1
f 201/1/1 202/2/1 186/3/1 185/4/1
f 202/1/1 203/2/1 187/3/1 186/4/1
f 203/1/1 204/2/1 188/3/1 187/4/1
f 204/1/1 205/2/1 189/3/1 188/4/1
f 205/1/1 206/2/1 190/3/1 189/4/1
f 206/1/1 207/2/1 191/3/1 190/4/1
f 207/1/1 208/2/1 192/3/1 191/4/1
f 209/1/1 210/2/1 194/3/1 193/4/1
f 210/1/1 211/2/1 195/3/1 194/4/1
f 211/1/1 212/2/1 196/3/1 195/4/1
f 212/1/1 213/2/1 197/3/1 196/4/1
f 213/1/1 214/2/1 198/3/1 197/4/1
f 214/1/1 215/2/1 199/3/1 198/4/1
f 215/1/1 216/2/1 200/3/1 199/4/1
f 216/1/1 217/2/1 201/3/1 200/4/1
f 217/1/1 218/2/1 202/3/1 201/4/1
f 218/1/1 219/2/1 203/3/1 202/4/1
f 219/1/1 220/2/1 204/3/1 203/4/1
f 220/1/1 221/2/1 205/3/1 204/4/1
f 221/1/1 222/2/1 206/3/1 205/4/1
f 222/1/1 223/2/1 207/3/1 206/4/1
f 223/1/1 224/2/1 208/3/1 207/4/1
f 225/1/1 226/2/1 210/3/1 209/4/1
f 226/1/1 227/2/1 211/3/1 210/4/1
f 227/1/1 228/2/1 212/3/1 211/4/1
f 228/1/1 229/2/1 213/3/1 212/4/1
f 229/1/1 230/2/1 214/3/1 213/4/1
f 230/1/1 231/2/1 215/3/1 214/4/1
f 231/1/1 232/2/1 216/3/1 215/4/1
f 232/1/1 233/2/1 217/3/1 216/4/1
f 233/1/1 234/2/1 218/3/1 217/4/1
f 234/1/1 235/2/1 219/3/1 218/4/1
f 235/1/1 236/2/1 220/3/1 219/4/1
f 236/1/1 237/2/1 221/3/1 220/4/1
f 237/1/1 238/2/1 222/3/1 221/4/1
f 238/1/1 239/2/1 223/3/1 222/4/1
f 239/1/1 240/2/1 224/3/1 223/4/1
f 241/1/1 242/2/1 226/3/1 225/4/1
f 242/1/1 243/2/1 227/3/1 226/4/1
f 243/1/1 244/2/1 228/3/1 227/4/1
f 244/1/1 245/2/1 229/3/1 228/4/1
f 245/1/1 246/2/1 230/3/1 229/4/1
f 246/1/1 247/2/1 231/3/1 230/4/1
f 247/1/1 248/2/1 232/3/1 231/4/1
f 248/1/1 249/2/1 233/3/1 232/4/1
f 249/1/1 250/2/1 234/3/1 233/4/1
f 250/1/1 251/2/1 235/3/1 234/4/1
f 251/1/1 252/2/1 236/3/1 235/4/1
f 252/1/1 253/2/1 237/3/1 236/4/1
f 253/1/1 254/2/1 238/3/1 237/4/1
f 254/1/1 255/2/1 239/3/1 238/4/1
f 255/1/1 256/2/1 240/3/1 239/4/1

g mesh_0002
f 1/1/1 2/2/1 3/3/1 4/4/1
f 2/1/1 5/2/1 6/3/1 3/4/1
f 5/5/1 7/6/1 8/7/1 6/8/1
f 7/9/1 9/10/1 10/11/1 8/12/1
f 33/13/1 34/14/1 2/15/1 1/16/1
f 34/1/1 35/2/1 5/3/1 2/4/1
f 35/1/1 36/2/1 7/3/1 5/4/1
f 36/5/1 37/6/1 9/7/1 7/8/1
f 37/17/1 38/18/1 11/19/1 9/20/1
f 38/9/1 39/10/1 13/11/1 11/12/1
f 49/21/1 50/22/1 34/23/1 33/24/1
f 50/13/1 51/14/1 35/15/1 34/16/1
f 51/1/1 52/2/1 36/3/1 35/4/1
f 52/1/1 53/2/1 37/3/1 36/4/1
f 53/1/1 54/2/1 38/3/1 37/4/1
f 54/5/1 55/6/1 39/7/1 38/8/1
f 55/9/1 56/10/1 40/11/1 39/12/1
f 66/21/1 67/22/1 51/23/1 50/24/1
f 67/25/1 68/26/1 52/27/1 51/28/1
f 68/13/1 69/14/1 53/15/1 52/16/1
f 69/1/1 70/2/1 54/3/1 53/4/1
f 70/1/1 71/2/1 55/3/1 54/4/1
f 71/5/1 72/6/1 56/7/1 55/8/1
f 72/9/1 73/10/1 57/11/1 56/12/1
f 84/21/1 85/22/1 69/23/1 68/24/1
f 85/25/1 86/26/1 70/27/1 69/28/1
f 86/13/1 87/14/1 71/15/1 70/16/1
f 87/1/1 88/2/1 72/3/1 71/4/1
f 88/5/1 89/6/1 73/7/1 72/8/1
f 89/9/1 90/10/1 74/11/1 73/12/1
f 102/29/1 103/30/1 87/31/1 86/32/1
f 103/1/1 104/2/1 88/3/1 87/4/1
f 104/1/1 105/2/1 89/3/1 88/4/1
f 105/5/1 106/6/1 90/7/1 89/8/1
f 106/9/1 107/10/1 91/11/1 90/12/1
f 118/21/1 119/22/1 103/23/1 102/24/1
f 119/13/1 120/14/1 104/15/1 103/16/1
f 120/1/1 121/2/1 105/3/1 104/4/1
f 121/1/1 122/2/1 106/3/1 105/4/1
f 122/5/1 123/6/1 107/7/1 106/8/1
f 123/17/1 124/18/1 108/19/1 107/20/1
f 124/9/1 125/10/1 109/11/1 108/12/1
f 135/21/1 136/22/1 120/23/1 119/24/1
f 136/25/1 137/26/1 121/27/1 120/28/1
f 137/13/1 138/14/1 122/15/1 121/16/1
f 138/1/1 139/2/1 123/3/1 122/4/1
f 139/1/1 140/2/1 124/3/1 123/4/1
f 140/5/1 141/6/1 125/7/1 124/8/1
f 141/9/1 142/10/1 126/11/1 125/12/1
f 153/21/1 154/22/1 138/23/1 137/24/1
f 154/13/1 155/14/1 139/15/1 138/16/1
f 155/1/1 156/2/1 140/3/1 139/4/1
f 156/1/1 157/2/1 141/3/1 140/4/1
f 157/5/1 158/6/1 142/7/1 141/8/1
f 158/9/1 159/10/1 143/11/1 142/12/1
f 170/21/1 171/22/1 155/23/1 154/24/1
f 171/13/1 172/14/1 156/15/1 155/16/1
f 172/1/1 173/2/1 157/3/1 156/4/1
f 173/1/1 174/2/1 158/3/1 157/4/1
f 174/5/1 175/6/1 159/7/1 158/8/1
f 175/9/1 176/10/1 160/11/1 159/12/1
f 187/21/1 188/22/1 172/23/1 171/24/1
f 188/13/1 189/14/1 173/15/1 172/16/1
f 189/1/1 190/2/1 174/3/1 173/4/1
f 190/1/1 191/2/1 175/3/1 174/4/1
f 191/5/1 192/6/1 176/7/1 175/8/1
f 204/21/1 205/22/1 189/23/1 188/24/1
f 205/13/1 206/14/1 190/15/1 189/16/1
f 206/1/1 207/2/1 191/3/1 190/4/1
f 207/1/1 208/2/1 192/3/1 191/4/1
f 221/21/1 222/22/1 206/23/1 205/24/1
f 222/13/1 223/14/1 207/15/1 206/16/1
f 223/1/1 224/2/1 208/3/1 207/4/1
f 238/29/1 239/30/1 223/31/1 222/32/1
f 239/1/1 240/2/1 224/3/1 223/4/1
f 254/29/1 255/30/1 239/31/1 238/32/1
f 255/1/1 256/2/1 240/3/1 239/4/1

g mesh_0003
f 13/33/1 15/34/1 16/35/1 14/36/1
f 25/37/1 27/38/1 28/39/1 26/40/1
f 82/33/1 83/34/1 67/35/1 66/36/1
f 91/37/1 92/38/1 76/39/1 75/40/1
f 109/41/1 110/42/1 94/43/1 93/44/1
f 134/41/1 135/42/1 119/43/1 118/44/1
f 146/37/1 147/38/1 131/39/1 130/40/1
f 179/33/1 180/34/1 164/35/1 163/36/1
f 181/41/1 182/42/1 166/43/1 165/44/1
f 215/41/1 216/42/1 200/43/1 199/44/1
f 217/41/1 218/42/1 202/43/1 201/44/1
f 227/37/1 228/38/1 212/39/1 211/40/1
f 230/33/1 231/34/1 215/35/1 214/36/1
f 236/37/1 237/38/1 221/39/1 220/40/1
f 246/33/1 247/34/1 231/35/1 230/36/1

g mesh_0004
f 17/45/1 19/46/1 20/47/1 18/48/1
f 19/49/1 21/50/1 22/51/1 20/52/1
f 21/53/1 23/54/1 24/55/1 22/56/1
f 41/57/1 42/58/1 19/59/1 17/60/1
f 42/61/1 43/62/1 21/63/1 19/64/1
f 43/65/1 44/66/1 23/67/1 21/68/1
f 45/69/1 46/70/1 27/71/1 25/72/1
f 46/73/1 47/74/1 29/75/1 27/76/1
f 47/77/1 48/78/1 31/79/1 29/80/1
f 61/81/1 62/82/1 46/83/1 45/84/1
f 62/85/1 63/86/1 47/87/1 46/88/1
f 63/89/1 64/90/1 48/91/1 47/92/1
f 77/93/1 78/94/1 62/95/1 61/96/1
f 78/97/1 79/98/1 63/99/1 62/100/1
f 79/101/1 80/102/1 64/103/1 63/104/1
f 131/69/1 132/70/1 116/71/1 115/72/1
f 132/73/1 133/74/1 117/75/1 116/76/1
f 133/77/1 134/78/1 118/79/1 117/80/1
f 147/81/1 148/82/1 132/83/1 131/84/1
f 148/85/1 149/86/1 133/87/1 132/88/1
f 149/89/1 150/90/1 134/91/1 133/92/1
f 163/93/1 164/94/1 148/95/1 147/96/1
f 164/97/1 165/98/1 149/99/1 148/100/1
f 165/101/1 166/102/1 150/103/1 149/104/1
f 167/69/1 168/70/1 152/71/1 151/72/1
f 168/73/1 169/74/1 153/75/1 152/76/1
f 169/77/1 170/78/1 154/79/1 153/80/1
f 183/81/1 184/82/1 168/83/1 167/84/1
f 184/85/1 185/86/1 169/87/1 168/88/1
f 185/89/1 186/90/1 170/91/1 169/92/1
f 199/93/1 200/94/1 184/95/1 183/96/1
f 200/97/1 201/98/1 185/99/1 184/100/1
f 201/101/1 202/102/1 186/103/1 185/104/1

g mesh_0005
f 54/105/1 55/42/1 39/15/1 38/106/1
f 100/37/1 101/107/1 85/79/1 84/72/1
f 105/105/1 106/42/1 90/15/1 89/106/1
f 142/37/1 143/107/1 127/79/1 126/72/1
f 205/105/1 206/42/1 190/15/1 189/106/1
f 234/105/1 235/42/1 219/15/1 218/106/1

g mesh_0006
f 57/29/1 58/108/1 42/109/1 41/110/1
f 58/111/1 59/30/1 43/112/1 42/113/1
f 59/1/1 60/114/1 44/115/1 43/20/1
f 73/37/1 74/116/1 58/117/1 57/24/1
f 74/118/1 75/38/1 59/23/1 58/119/1
f 75/33/1 76/107/1 60/120/1 59/28/1
f 93/29/1 94/108/1 78/109/1 77/110/1
f 94/111/1 95/30/1 79/112/1 78/113/1
f 95/1/1 96/114/1 80/115/1 79/20/1
f 110/118/1 111/38/1 95/23/1 94/119/1
f 111/33/1 112/107/1 96/120/1 95/28/1
f 180/111/1 181/30/1 165/112/1 164/113/1
f 195/37/1 196/116/1 180/117/1 179/24/1
f 196/118/1 197/38/1 181/23/1 180/119/1
f 197/33/1 198/107/1 182/120/1 181/28/1
f 216/111/1 217/30/1 201/112/1 200/113/1
f 231/37/1 232/116/1 216/117/1 215/24/1
f 232/118/1 233/38/1 217/23/1 216/119/1
f 233/33/1 234/107/1 218/120/1 217/28/1

g mesh_0007
f 41/121/1 42/122/1 19/71/1 17/72/1
f 42/123/1 43/124/1 21/75/1 19/76/1
f 43/5/1 44/125/1 23/79/1 21/80/1
f 57/29/1 58/108/1 42/109/1 41/110/1
f 58/111/1 59/30/1 43/112/1 42/113/1
f 59/1/1 60/114/1 44/115/1 43/20/1
f 73/37/1 74/116/1 58/117/1 57/24/1
f 74/118/1 75/38/1 59/23/1 58/119/1
f 75/33/1 76/107/1 60/120/1 59/28/1
f 77/121/1 78/122/1 62/71/1 61/72/1
f 78/123/1 79/124/1 63/75/1 62/76/1
f 79/5/1 80/125/1 64/79/1 63/80/1
f 93/29/1 94/108/1 78/109/1 77/110/1
f 94/111/1 95/30/1 79/112/1 78/113/1
f 95/1/1 96/114/1 80/115/1 79/20/1
f 109/37/1 110/116/1 94/117/1 93/24/1
f 110/118/1 111/38/1 95/23/1 94/119/1
f 111/33/1 112/107/1 96/120/1 95/28/1
f 163/121/1 164/122/1 148/71/1 147/72/1
f 164/123/1 165/124/1 149/75/1 148/76/1
f 165/5/1 166/125/1 150/79/1 149/80/1
f 179/29/1 180/108/1 164/109/1 163/110/1
f 180/111/1 181/30/1 165/112/1 164/113/1
f 181/1/1 182/114/1 166/115/1 165/20/1
f 195/37/1 196/116/1 180/117/1 179/24/1
f 196/118/1 197/38/1 181/23/1 180/119/1
f 197/33/1 198/107/1 182/120/1 181/28/1
f 199/121/1 200/122/1 184/71/1 183/72/1
f 200/123/1 201/124/1 185/75/1 184/76/1
f 201/5/1 202/125/1 186/79/1 185/80/1
f 215/29/1 216/108/1 200/109/1 199/110/1
f 216/111/1 217/30/1 201/112/1 200/113/1
f 217/1/1 218/114/1 202/115/1 201/20/1
f 231/37/1 232/116/1 216/117/1 215/24/1
f 232/118/1 233/38/1 217/23/1 216/119/1
f 233/33/1 234/107/1 218/120/1 217/28/1

g mesh_0008
f 17/69/1 19/70/1 20/71/1 18/72/1
f 19/73/1 21/74/1 22/75/1 20/76/1
f 21/77/1 23/78/1 24/79/1 22/80/1
f 41/81/1 42/82/1 19/83/1 17/84/1
f 42/85/1 43/86/1 21/87/1 19/88/1
f 43/89/1 44/90/1 23/91/1 21/92/1
f 45/69/1 46/70/1 27/71/1 25/72/1
f 46/73/1 47/74/1 29/75/1 27/76/1
f 47/77/1 48/78/1 31/79/1 29/80/1
f 57/93/1 58/94/1 42/95/1 41/96/1
f 58/97/1 59/98/1 43/99/1 42/100/1
f 59/101/1 60/102/1 44/103/1 43/104/1
f 61/81/1 62/82/1 46/83/1 45/84/1
f 62/85/1 63/86/1 47/87/1 46/88/1
f 63/89/1 64/90/1 48/91/1 47/92/1
f 77/93/1 78/94/1 62/95/1 61/96/1
f 78/97/1 79/98/1 63/99/1 62/100/1
f 79/101/1 80/102/1 64/103/1 63/104/1
f 131/69/1 132/70/1 116/71/1 115/72/1
f 132/73/1 133/74/1 117/75/1 116/76/1
f 133/77/1 134/78/1 118/79/1 117/80/1
f 147/81/1 148/82/1 132/83/1 131/84/1
f 148/85/1 149/86/1 133/87/1 132/88/1
f 149/89/1 150/90/1 134/91/1 133/92/1
f 163/93/1 164/94/1 148/95/1 147/96/1
f 164/97/1 165/98/1 149/99/1 148/100/1
f 165/101/1 166/102/1 150/103/1 149/104/1
f 167/69/1 168/70/1 152/71/1 151/72/1
f 168/73/1 169/74/1 153/75/1 152/76/1
f 169/77/1 170/78/1 154/79/1 153/80/1
f 183/81/1 184/82/1 168/83/1 167/84/1
f 184/85/1 185/86/1 169/87/1 168/88/1
f 185/89/1 186/90/1 170/91/1 169/92/1
f 199/93/1 200/94/1 184/95/1 183/96/1
f 200/97/1 201/98/1 185/99/1 184/100/1
f 201/101/1 202/102/1 186/103/1 185/104/1

g mesh_0009
f 54/33/1 55/34/1 39/35/1 38/36/1
f 58/33/1 59/34/1 43/35/1 42/36/1
f 78/33/1 79/34/1 63/35/1 62/36/1
f 94/33/1 95/34/1 79/35/1 78/36/1
f 100/33/1 101/34/1 85/35/1 84/36/1
f 105/33/1 106/34/1 90/35/1 89/36/1
f 142/33/1 143/34/1 127/35/1 126/36/1
f 164/33/1 165/34/1 149/35/1 148/36/1
f 180/33/1 181/34/1 165/35/1 164/36/1
f 200/33/1 201/34/1 185/35/1 184/36/1
f 205/33/1 206/34/1 190/35/1 189/36/1
f 216/33/1 217/34/1 201/35/1 200/36/1
f 234/33/1 235/34/1 219/35/1 218/36/1

